<svg width="31" height="29" viewBox="0 0 31 29" fill="none" xmlns="http://www.w3.org/2000/svg">
<path d="M23.9186 28.3581C23.7056 28.3589 23.4978 28.2925 23.3247 28.1684L15.1909 22.2715L7.05711 28.1684C6.88334 28.2944 6.67398 28.3619 6.45931 28.3611C6.24465 28.3604 6.03579 28.2913 5.86293 28.164C5.69008 28.0367 5.56219 27.8578 5.49775 27.653C5.43331 27.4482 5.43567 27.2283 5.50447 27.0249L8.67679 17.6288L0.455064 11.9905C0.276976 11.8686 0.142565 11.6928 0.0714707 11.489C0.000376138 11.2852 -0.00367635 11.064 0.0599054 10.8577C0.123487 10.6514 0.251371 10.4708 0.424872 10.3424C0.598373 10.214 0.808397 10.1444 1.02426 10.1438H11.1673L14.2284 0.723616C14.2943 0.520237 14.423 0.342971 14.5959 0.217247C14.7688 0.0915232 14.9771 0.0238037 15.1909 0.0238037C15.4047 0.0238037 15.613 0.0915232 15.786 0.217247C15.9589 0.342971 16.0876 0.520237 16.1535 0.723616L19.2145 10.147H29.3576C29.5737 10.1469 29.7842 10.216 29.9582 10.3442C30.1322 10.4723 30.2607 10.6529 30.3246 10.8593C30.3886 11.0658 30.3848 11.2873 30.3138 11.4914C30.2428 11.6955 30.1083 11.8716 29.9299 11.9937L21.7051 17.6288L24.8755 27.0224C24.9269 27.1745 24.9413 27.3366 24.9176 27.4954C24.894 27.6541 24.8329 27.805 24.7394 27.9355C24.6459 28.066 24.5227 28.1724 24.38 28.2459C24.2373 28.3193 24.0791 28.3578 23.9186 28.3581Z" fill="#5A698F"/>
</svg>
